{
    "asset" : {
        "generator" : "Khronos glTF Blender I/O v1.5.17",
        "version" : "2.0"
    },
    "scene" : 0,
    "scenes" : [
        {
            "name" : "Scene",
            "nodes" : [
                17
            ]
        }
    ],
    "nodes" : [
        {
            "name" : "Node"
        },
        {
            "children" : [
                0
            ],
            "name" : "CINEMA_4D_Editor",
            "rotation" : [
                -0.15606123208999634,
                -0.06464267522096634,
                -0.9106032848358154,
                0.3771842122077942
            ],
            "translation" : [
                87.36371612548828,
                87.36371612548828,
                -43.983890533447266
            ]
        },
        {
            "name" : "Cable_end_02",
            "rotation" : [
                0.1004321500658989,
                0.010464906692504883,
                0.1031079962849617,
                0.9895315170288086
            ],
            "scale" : [
                0.9999999403953552,
                0.9999999403953552,
                1.0000001192092896
            ],
            "translation" : [
                -3.877552032470703,
                23.591350555419922,
                4.451576232910156
            ]
        },
        {
            "children" : [
                2
            ],
            "name" : "Cable_Mid_01",
            "rotation" : [
                -0.10043222457170486,
                -0.010464906692504883,
                -0.10310809314250946,
                0.9895315170288086
            ],
            "translation" : [
                3.2395741939544678,
                21.71436309814453,
                -15.513985633850098
            ]
        },
        {
            "name" : "Cover_03",
            "translation" : [
                0.000205720541998744,
                12.896737098693848,
                -4.92546272277832
            ]
        },
        {
            "name" : "Camera_2_04",
            "translation" : [
                0,
                10.048476219177246,
                15.879867553710938
            ]
        },
        {
            "children" : [
                3,
                4,
                5
            ],
            "name" : "Top_00",
            "translation" : [
                0,
                2.96770977973938,
                17.578357696533203
            ]
        },
        {
            "children" : [
                6
            ],
            "name" : "_rootJoint",
            "rotation" : [
                -0.7071068286895752,
                0,
                0,
                0.7071068286895752
            ]
        },
        {
            "children" : [
                7
            ],
            "name" : "Armature_0"
        },
        {
            "name" : "Node.003"
        },
        {
            "children" : [
                9
            ],
            "name" : "Camera",
            "rotation" : [
                0,
                0,
                0.7071068286895752,
                0.7071068286895752
            ],
            "translation" : [
                0,
                33.45842742919922,
                -13.016185760498047
            ]
        },
        {
            "mesh" : 0,
            "name" : "Mesh_Standard_0",
            "skin" : 0
        },
        {
            "mesh" : 1,
            "name" : "Mesh_Standard_0.001",
            "skin" : 0
        },
        {
            "mesh" : 2,
            "name" : "Mesh_Standard_0.002",
            "skin" : 0
        },
        {
            "name" : "Node.002",
            "translation" : [
                1.6539775133132935,
                -1.0511136054992676,
                0
            ]
        },
        {
            "children" : [
                8,
                10,
                11,
                12,
                13,
                14
            ],
            "name" : "Node.001"
        },
        {
            "children" : [
                15
            ],
            "name" : "Surveillance_camera"
        },
        {
            "children" : [
                1,
                16
            ],
            "name" : "Surveillance Camera",
            "rotation" : [
                0.7071068286895752,
                0,
                0,
                0.7071067690849304
            ],
            "scale" : [
                0.011016502976417542,
                0.01101650670170784,
                0.01101650670170784
            ]
        }
    ],
    "materials" : [
        {
            "alphaMode" : "BLEND",
            "doubleSided" : true,
            "emissiveFactor" : [
                1,
                1,
                1
            ],
            "emissiveTexture" : {
                "index" : 0
            },
            "name" : "Standard",
            "normalTexture" : {
                "index" : 1
            },
            "pbrMetallicRoughness" : {
                "baseColorTexture" : {
                    "index" : 2
                },
                "metallicRoughnessTexture" : {
                    "index" : 3
                }
            }
        }
    ],
    "meshes" : [
        {
            "name" : "Mesh_Standard_0",
            "primitives" : [
                {
                    "attributes" : {
                        "POSITION" : 0,
                        "NORMAL" : 1,
                        "TEXCOORD_0" : 2,
                        "TEXCOORD_1" : 3,
                        "TEXCOORD_2" : 4,
                        "TEXCOORD_3" : 5,
                        "TEXCOORD_4" : 6,
                        "TEXCOORD_5" : 7,
                        "JOINTS_0" : 8,
                        "WEIGHTS_0" : 9
                    },
                    "indices" : 10,
                    "material" : 0
                }
            ]
        },
        {
            "name" : "Mesh_Standard_0.001",
            "primitives" : [
                {
                    "attributes" : {
                        "POSITION" : 12,
                        "NORMAL" : 13,
                        "TEXCOORD_0" : 14,
                        "TEXCOORD_1" : 15,
                        "TEXCOORD_2" : 16,
                        "TEXCOORD_3" : 17,
                        "TEXCOORD_4" : 18,
                        "TEXCOORD_5" : 19,
                        "JOINTS_0" : 20,
                        "WEIGHTS_0" : 21
                    },
                    "indices" : 22,
                    "material" : 0
                }
            ]
        },
        {
            "name" : "Mesh_Standard_0.002",
            "primitives" : [
                {
                    "attributes" : {
                        "POSITION" : 23,
                        "NORMAL" : 24,
                        "TEXCOORD_0" : 25,
                        "TEXCOORD_1" : 26,
                        "TEXCOORD_2" : 27,
                        "TEXCOORD_3" : 28,
                        "TEXCOORD_4" : 29,
                        "TEXCOORD_5" : 30,
                        "JOINTS_0" : 31,
                        "WEIGHTS_0" : 32
                    },
                    "indices" : 33,
                    "material" : 0
                }
            ]
        }
    ],
    "textures" : [
        {
            "sampler" : 0,
            "source" : 0
        },
        {
            "sampler" : 0,
            "source" : 1
        },
        {
            "sampler" : 0,
            "source" : 2
        },
        {
            "sampler" : 0,
            "source" : 3
        }
    ],
    "images" : [
        {
            "mimeType" : "image/png",
            "name" : "Standard_emissive",
            "uri" : "Textures/Standard_emissive.png"
        },
        {
            "mimeType" : "image/png",
            "name" : "Standard_normal",
            "uri" : "Textures/Standard_normal.png"
        },
        {
            "mimeType" : "image/png",
            "name" : "Standard_baseColor",
            "uri" : "Textures/Standard_baseColor.png"
        },
        {
            "mimeType" : "image/png",
            "name" : "Standard_metallicRoughness",
            "uri" : "Textures/Standard_metallicRoughness.png"
        }
    ],
    "skins" : [
        {
            "inverseBindMatrices" : 11,
            "joints" : [
                7,
                6,
                3,
                2,
                4,
                5
            ],
            "name" : "Armature_0"
        }
    ],
    "accessors" : [
        {
            "bufferView" : 0,
            "componentType" : 5126,
            "count" : 65532,
            "max" : [
                0.06461705267429352,
                0.20871034264564514,
                0.3592761754989624
            ],
            "min" : [
                -0.06533146649599075,
                -0.10573054105043411,
                -0.06361017376184464
            ],
            "type" : "VEC3"
        },
        {
            "bufferView" : 1,
            "componentType" : 5126,
            "count" : 65532,
            "type" : "VEC3"
        },
        {
            "bufferView" : 2,
            "componentType" : 5126,
            "count" : 65532,
            "type" : "VEC2"
        },
        {
            "bufferView" : 3,
            "componentType" : 5126,
            "count" : 65532,
            "type" : "VEC2"
        },
        {
            "bufferView" : 4,
            "componentType" : 5126,
            "count" : 65532,
            "type" : "VEC2"
        },
        {
            "bufferView" : 5,
            "componentType" : 5126,
            "count" : 65532,
            "type" : "VEC2"
        },
        {
            "bufferView" : 6,
            "componentType" : 5126,
            "count" : 65532,
            "type" : "VEC2"
        },
        {
            "bufferView" : 7,
            "componentType" : 5126,
            "count" : 65532,
            "type" : "VEC2"
        },
        {
            "bufferView" : 8,
            "componentType" : 5121,
            "count" : 65532,
            "type" : "VEC4"
        },
        {
            "bufferView" : 9,
            "componentType" : 5126,
            "count" : 65532,
            "type" : "VEC4"
        },
        {
            "bufferView" : 10,
            "componentType" : 5123,
            "count" : 351549,
            "type" : "SCALAR"
        },
        {
            "bufferView" : 11,
            "componentType" : 5126,
            "count" : 6,
            "type" : "MAT4"
        },
        {
            "bufferView" : 12,
            "componentType" : 5126,
            "count" : 65532,
            "max" : [
                0.07147393375635147,
                0.5395166873931885,
                0.39580684900283813
            ],
            "min" : [
                -0.07146941125392914,
                0.009181934408843517,
                -0.06361015886068344
            ],
            "type" : "VEC3"
        },
        {
            "bufferView" : 13,
            "componentType" : 5126,
            "count" : 65532,
            "type" : "VEC3"
        },
        {
            "bufferView" : 14,
            "componentType" : 5126,
            "count" : 65532,
            "type" : "VEC2"
        },
        {
            "bufferView" : 15,
            "componentType" : 5126,
            "count" : 65532,
            "type" : "VEC2"
        },
        {
            "bufferView" : 16,
            "componentType" : 5126,
            "count" : 65532,
            "type" : "VEC2"
        },
        {
            "bufferView" : 17,
            "componentType" : 5126,
            "count" : 65532,
            "type" : "VEC2"
        },
        {
            "bufferView" : 18,
            "componentType" : 5126,
            "count" : 65532,
            "type" : "VEC2"
        },
        {
            "bufferView" : 19,
            "componentType" : 5126,
            "count" : 65532,
            "type" : "VEC2"
        },
        {
            "bufferView" : 20,
            "componentType" : 5121,
            "count" : 65532,
            "type" : "VEC4"
        },
        {
            "bufferView" : 21,
            "componentType" : 5126,
            "count" : 65532,
            "type" : "VEC4"
        },
        {
            "bufferView" : 22,
            "componentType" : 5123,
            "count" : 351108,
            "type" : "SCALAR"
        },
        {
            "bufferView" : 23,
            "componentType" : 5126,
            "count" : 13001,
            "max" : [
                0.07534994930028915,
                0.21828815340995789,
                0.43182462453842163
            ],
            "min" : [
                -0.07534543424844742,
                0.06800907850265503,
                0.09624359756708145
            ],
            "type" : "VEC3"
        },
        {
            "bufferView" : 24,
            "componentType" : 5126,
            "count" : 13001,
            "type" : "VEC3"
        },
        {
            "bufferView" : 25,
            "componentType" : 5126,
            "count" : 13001,
            "type" : "VEC2"
        },
        {
            "bufferView" : 26,
            "componentType" : 5126,
            "count" : 13001,
            "type" : "VEC2"
        },
        {
            "bufferView" : 27,
            "componentType" : 5126,
            "count" : 13001,
            "type" : "VEC2"
        },
        {
            "bufferView" : 28,
            "componentType" : 5126,
            "count" : 13001,
            "type" : "VEC2"
        },
        {
            "bufferView" : 29,
            "componentType" : 5126,
            "count" : 13001,
            "type" : "VEC2"
        },
        {
            "bufferView" : 30,
            "componentType" : 5126,
            "count" : 13001,
            "type" : "VEC2"
        },
        {
            "bufferView" : 31,
            "componentType" : 5121,
            "count" : 13001,
            "type" : "VEC4"
        },
        {
            "bufferView" : 32,
            "componentType" : 5126,
            "count" : 13001,
            "type" : "VEC4"
        },
        {
            "bufferView" : 33,
            "componentType" : 5123,
            "count" : 70443,
            "type" : "SCALAR"
        }
    ],
    "bufferViews" : [
        {
            "buffer" : 0,
            "byteLength" : 786384,
            "byteOffset" : 0
        },
        {
            "buffer" : 0,
            "byteLength" : 786384,
            "byteOffset" : 786384
        },
        {
            "buffer" : 0,
            "byteLength" : 524256,
            "byteOffset" : 1572768
        },
        {
            "buffer" : 0,
            "byteLength" : 524256,
            "byteOffset" : 2097024
        },
        {
            "buffer" : 0,
            "byteLength" : 524256,
            "byteOffset" : 2621280
        },
        {
            "buffer" : 0,
            "byteLength" : 524256,
            "byteOffset" : 3145536
        },
        {
            "buffer" : 0,
            "byteLength" : 524256,
            "byteOffset" : 3669792
        },
        {
            "buffer" : 0,
            "byteLength" : 524256,
            "byteOffset" : 4194048
        },
        {
            "buffer" : 0,
            "byteLength" : 262128,
            "byteOffset" : 4718304
        },
        {
            "buffer" : 0,
            "byteLength" : 1048512,
            "byteOffset" : 4980432
        },
        {
            "buffer" : 0,
            "byteLength" : 703098,
            "byteOffset" : 6028944
        },
        {
            "buffer" : 0,
            "byteLength" : 384,
            "byteOffset" : 6732044
        },
        {
            "buffer" : 0,
            "byteLength" : 786384,
            "byteOffset" : 6732428
        },
        {
            "buffer" : 0,
            "byteLength" : 786384,
            "byteOffset" : 7518812
        },
        {
            "buffer" : 0,
            "byteLength" : 524256,
            "byteOffset" : 8305196
        },
        {
            "buffer" : 0,
            "byteLength" : 524256,
            "byteOffset" : 8829452
        },
        {
            "buffer" : 0,
            "byteLength" : 524256,
            "byteOffset" : 9353708
        },
        {
            "buffer" : 0,
            "byteLength" : 524256,
            "byteOffset" : 9877964
        },
        {
            "buffer" : 0,
            "byteLength" : 524256,
            "byteOffset" : 10402220
        },
        {
            "buffer" : 0,
            "byteLength" : 524256,
            "byteOffset" : 10926476
        },
        {
            "buffer" : 0,
            "byteLength" : 262128,
            "byteOffset" : 11450732
        },
        {
            "buffer" : 0,
            "byteLength" : 1048512,
            "byteOffset" : 11712860
        },
        {
            "buffer" : 0,
            "byteLength" : 702216,
            "byteOffset" : 12761372
        },
        {
            "buffer" : 0,
            "byteLength" : 156012,
            "byteOffset" : 13463588
        },
        {
            "buffer" : 0,
            "byteLength" : 156012,
            "byteOffset" : 13619600
        },
        {
            "buffer" : 0,
            "byteLength" : 104008,
            "byteOffset" : 13775612
        },
        {
            "buffer" : 0,
            "byteLength" : 104008,
            "byteOffset" : 13879620
        },
        {
            "buffer" : 0,
            "byteLength" : 104008,
            "byteOffset" : 13983628
        },
        {
            "buffer" : 0,
            "byteLength" : 104008,
            "byteOffset" : 14087636
        },
        {
            "buffer" : 0,
            "byteLength" : 104008,
            "byteOffset" : 14191644
        },
        {
            "buffer" : 0,
            "byteLength" : 104008,
            "byteOffset" : 14295652
        },
        {
            "buffer" : 0,
            "byteLength" : 52004,
            "byteOffset" : 14399660
        },
        {
            "buffer" : 0,
            "byteLength" : 208016,
            "byteOffset" : 14451664
        },
        {
            "buffer" : 0,
            "byteLength" : 140886,
            "byteOffset" : 14659680
        }
    ],
    "samplers" : [
        {
            "magFilter" : 9729,
            "minFilter" : 9987
        }
    ],
    "buffers" : [
        {
            "byteLength" : 14800568,
            "uri" : "Camera.bin"
        }
    ]
}
