{
    "asset" : {
        "generator" : "Khronos glTF Blender I/O v1.5.17",
        "version" : "2.0"
    },
    "scene" : 0,
    "scenes" : [
        {
            "name" : "Scene",
            "nodes" : [
                0
            ]
        }
    ],
    "nodes" : [
        {
            "mesh" : 0,
            "name" : "PTish Phone",
            "rotation" : [
                0,
                1,
                0,
                0
            ],
            "translation" : [
                -13.511523246765137,
                0.22448545694351196,
                0
            ]
        }
    ],
    "materials" : [
        {
            "doubleSided" : true,
            "name" : "01_-_Default",
            "normalTexture" : {
                "index" : 0
            },
            "pbrMetallicRoughness" : {
                "baseColorTexture" : {
                    "index" : 1
                },
                "metallicFactor" : 0,
                "metallicRoughnessTexture" : {
                    "index" : 2
                },
                "roughnessFactor" : 0.5
            }
        }
    ],
    "meshes" : [
        {
            "name" : "Phone_01_-_Default_0",
            "primitives" : [
                {
                    "attributes" : {
                        "POSITION" : 0,
                        "NORMAL" : 1,
                        "TEXCOORD_0" : 2,
                        "TEXCOORD_1" : 3,
                        "COLOR_0" : 4
                    },
                    "indices" : 5,
                    "material" : 0
                }
            ]
        }
    ],
    "textures" : [
        {
            "sampler" : 0,
            "source" : 0
        },
        {
            "sampler" : 0,
            "source" : 1
        },
        {
            "sampler" : 0,
            "source" : 2
        }
    ],
    "images" : [
        {
            "mimeType" : "image/png",
            "name" : "01_-_Default_normal",
            "uri" : "01_-_Default_normal.png"
        },
        {
            "mimeType" : "image/png",
            "name" : "01_-_Default_baseColor",
            "uri" : "01_-_Default_baseColor.png"
        },
        {
            "mimeType" : "image/png",
            "name" : "01_-_Default_metallicRoughness",
            "uri" : "01_-_Default_metallicRoughness.png"
        }
    ],
    "accessors" : [
        {
            "bufferView" : 0,
            "componentType" : 5126,
            "count" : 5998,
            "max" : [
                8.128000259399414,
                8.288135528564453,
                16.423297882080078
            ],
            "min" : [
                -21.639490127563477,
                -8.51262092590332,
                -15.9111328125
            ],
            "type" : "VEC3"
        },
        {
            "bufferView" : 1,
            "componentType" : 5126,
            "count" : 5998,
            "type" : "VEC3"
        },
        {
            "bufferView" : 2,
            "componentType" : 5126,
            "count" : 5998,
            "type" : "VEC2"
        },
        {
            "bufferView" : 3,
            "componentType" : 5126,
            "count" : 5998,
            "type" : "VEC2"
        },
        {
            "bufferView" : 4,
            "componentType" : 5123,
            "count" : 5998,
            "normalized" : true,
            "type" : "VEC4"
        },
        {
            "bufferView" : 5,
            "componentType" : 5123,
            "count" : 22290,
            "type" : "SCALAR"
        }
    ],
    "bufferViews" : [
        {
            "buffer" : 0,
            "byteLength" : 71976,
            "byteOffset" : 0
        },
        {
            "buffer" : 0,
            "byteLength" : 71976,
            "byteOffset" : 71976
        },
        {
            "buffer" : 0,
            "byteLength" : 47984,
            "byteOffset" : 143952
        },
        {
            "buffer" : 0,
            "byteLength" : 47984,
            "byteOffset" : 191936
        },
        {
            "buffer" : 0,
            "byteLength" : 47984,
            "byteOffset" : 239920
        },
        {
            "buffer" : 0,
            "byteLength" : 44580,
            "byteOffset" : 287904
        }
    ],
    "samplers" : [
        {
            "magFilter" : 9729,
            "minFilter" : 9987
        }
    ],
    "buffers" : [
        {
            "byteLength" : 332484,
            "uri" : "Phone.bin"
        }
    ]
}
